# xmcd
#
# Track frame offsets:
#  150
#  15110
#  28959
#  47281
#  67310
#  84390
#  101319
#  117668
#  130853
#
# Disc length: 1896 seconds
#
# Revision: 0
# Processed by: cddbd v1.5.2PL0 Copyright (c) Steve Scherf et al.
# Submitted via: AltoMP3_Maker 3.0
#
DISCID=6d076609
DTITLE=Solaris Blues Band - Krik u jastuk zakovan
DYEAR=1900
DGENRE=
TTITLE0=Bluz severnog grada
TTITLE1=Svet bez bluza
TTITLE2=Gospodar nostalgije
TTITLE3=Sada draga
TTITLE4=Sve do zvezda
TTITLE5=Oda Dzimiju Hendriksu
TTITLE6=Nije bio dan za bluz
TTITLE7=Beli krug
TTITLE8=Tren slave
EXTD=
EXTT0=
EXTT1=
EXTT2=
EXTT3=
EXTT4=
EXTT5=
EXTT6=
EXTT7=
EXTT8=
PLAYORDER=
